<?xml version="1.0" encoding="UTF-8" standalone="no"?>
<svg
   xmlns:dc="http://purl.org/dc/elements/1.1/"
   xmlns:cc="http://creativecommons.org/ns#"
   xmlns:rdf="http://www.w3.org/1999/02/22-rdf-syntax-ns#"
   xmlns:svg="http://www.w3.org/2000/svg"
   xmlns="http://www.w3.org/2000/svg"
   xmlns:sodipodi="http://sodipodi.sourceforge.net/DTD/sodipodi-0.dtd"
   xmlns:inkscape="http://www.inkscape.org/namespaces/inkscape"
   enable-background="new 0 0 48 48"
   height="48px"
   id="Layer_1"
   version="1.1"
   viewBox="0 0 48 48"
   width="48px"
   xml:space="preserve"
   sodipodi:docname="logo-black.svg"
   inkscape:version="0.92.5 (2060ec1f9f, 2020-04-08)"><metadata
   id="metadata13"><rdf:RDF><cc:Work
       rdf:about=""><dc:format>image/svg+xml</dc:format><dc:type
         rdf:resource="http://purl.org/dc/dcmitype/StillImage" /><dc:title></dc:title></cc:Work></rdf:RDF></metadata><defs
   id="defs11" /><sodipodi:namedview
   pagecolor="#ffffff"
   bordercolor="#666666"
   borderopacity="1"
   objecttolerance="10"
   gridtolerance="10"
   guidetolerance="10"
   inkscape:pageopacity="0"
   inkscape:pageshadow="2"
   inkscape:window-width="3840"
   inkscape:window-height="2057"
   id="namedview9"
   showgrid="false"
   inkscape:zoom="13.906433"
   inkscape:cx="-10.240984"
   inkscape:cy="35.881264"
   inkscape:window-x="0"
   inkscape:window-y="0"
   inkscape:window-maximized="1"
   inkscape:current-layer="Layer_1" /><path
   inkscape:connector-curvature="0"
   id="path4"
   d="m 19.764,16.244 c 0,0.572 0.124,1.115 0.339,1.607 l -5.909,9.899 c -2.144,0.087 -3.857,1.839 -3.857,4.003 0,2.221 1.8,4.021 4.02,4.021 2.221,0 4.02,-1.8 4.02,-4.021 0,-1.143 -0.482,-2.169 -1.248,-2.901 l 5.28,-8.845 c 0.432,0.158 0.891,0.258 1.377,0.258 0.327,0 0.642,-0.051 0.946,-0.125 l 5.56,9.407 c -0.416,0.634 -0.664,1.39 -0.664,2.206 0,2.221 1.801,4.021 4.021,4.021 2.22,0 4.02,-1.8 4.02,-4.021 0,-2.22 -1.799,-4.02 -4.02,-4.02 -0.273,0 -0.541,0.028 -0.799,0.081 l -5.625,-9.518 c 0.361,-0.602 0.58,-1.299 0.58,-2.053 0,-2.219 -1.799,-4.02 -4.02,-4.02 -2.221,0 -4.021,1.802 -4.021,4.021 z m -3.867,15.51 c 0,0.851 -0.689,1.541 -1.54,1.541 -0.851,0 -1.541,-0.69 -1.541,-1.541 0,-0.85 0.69,-1.54 1.541,-1.54 0.851,0 1.54,0.69 1.54,1.54 z m 19.292,0 c 0,0.851 -0.689,1.541 -1.541,1.541 -0.852,0 -1.541,-0.69 -1.541,-1.541 0,-0.85 0.689,-1.54 1.541,-1.54 0.852,0 1.541,0.69 1.541,1.54 z m -9.864,-15.51 c 0,0.852 -0.69,1.541 -1.541,1.541 -0.851,0 -1.541,-0.689 -1.541,-1.541 0,-0.85 0.69,-1.539 1.541,-1.539 0.851,0 1.541,0.69 1.541,1.539 z"
   style="fill:#ffffff" /><path
   style="fill:none;stroke:#ffffff;stroke-width:1px;stroke-linecap:butt;stroke-linejoin:miter;stroke-opacity:1"
   d="M 17.617745,31.388983 28.152438,24.413794"
   id="path29"
   inkscape:connector-curvature="0" /><text
   xml:space="preserve"
   style="font-style:normal;font-variant:normal;font-weight:normal;font-stretch:normal;font-size:72.15131378px;line-height:1.25;font-family:Electrolize;-inkscape-font-specification:Electrolize;letter-spacing:0px;word-spacing:0px;fill:#0066ff;fill-opacity:1;stroke:none;stroke-width:0.96631229"
   x="-5.72155"
   y="52.216572"
   id="text33"
   transform="scale(1.1470958,0.87176676)"><tspan
     sodipodi:role="line"
     id="tspan31"
     x="-5.72155"
     y="52.216572"
     style="font-style:normal;font-variant:normal;font-weight:normal;font-stretch:normal;font-family:Electrolize;-inkscape-font-specification:Electrolize;fill:#0066ff;stroke-width:0.96631229">U</tspan></text>

</svg>